<?xml version="1.0" standalone="no"?>
<!DOCTYPE svg PUBLIC "-//W3C//DTD SVG 20010904//EN"
 "http://www.w3.org/TR/2001/REC-SVG-20010904/DTD/svg10.dtd">
<svg version="1.0" xmlns="http://www.w3.org/2000/svg"
 width="1200.000000pt" height="812.000000pt" viewBox="0 0 1200.000000 812.000000"
 preserveAspectRatio="xMidYMid meet">
<metadata>
Created by potrace 1.16, written by Peter Selinger 2001-2019
</metadata>
<g transform="translate(0.000000,812.000000) scale(0.100000,-0.100000)"
fill="#000000" stroke="none">
<path d="M0 7584 l0 -536 25 6 c30 8 65 -12 65 -36 0 -34 16 -18 28 27 11 40
17 48 56 64 24 11 46 26 49 35 4 10 18 16 36 16 16 0 33 5 36 10 4 6 10 8 14
5 15 -9 91 54 85 69 -8 20 43 33 65 17 30 -21 43 -24 53 -10 7 11 11 11 15 2
2 -7 11 -13 19 -13 8 0 14 6 14 13 0 6 5 4 11 -5 5 -10 16 -18 24 -18 17 0 40
-39 37 -60 -2 -12 -1 -12 6 -2 7 10 11 10 21 -1 9 -12 6 -18 -14 -31 -26 -17
-34 -59 -13 -72 8 -5 9 -2 5 9 -4 11 0 20 12 27 21 11 51 -14 51 -43 0 -9 4
-17 10 -17 19 0 59 23 54 31 -10 16 8 9 25 -9 21 -24 61 -26 62 -4 1 9 2 26 3
37 1 13 9 20 24 21 12 1 25 4 29 8 3 3 12 1 20 -5 10 -9 10 -15 2 -25 -15 -18
-3 -48 16 -40 11 4 14 -1 11 -17 -2 -16 -14 -25 -41 -33 -25 -7 -34 -13 -26
-18 7 -5 9 -15 6 -25 -4 -9 -8 -42 -10 -73 -2 -43 0 -58 12 -62 9 -4 12 -13 8
-26 -4 -11 -2 -20 4 -20 6 0 11 8 11 17 0 14 3 13 16 -5 8 -12 20 -19 26 -16
7 4 7 0 0 -12 -9 -18 -7 -19 28 -16 21 2 41 -1 45 -8 4 -7 15 0 31 22 26 35
76 47 102 25 10 -8 16 -7 23 4 16 25 5 -23 -14 -58 -11 -21 -25 -33 -38 -33
-11 0 -18 4 -15 8 2 4 1 14 -4 22 -7 12 -12 11 -29 -4 -12 -11 -21 -25 -21
-33 0 -7 -7 -13 -15 -13 -8 0 -15 7 -15 16 0 8 -4 13 -10 9 -5 -3 -6 -13 -3
-21 5 -13 0 -14 -31 -9 -30 6 -36 4 -36 -10 0 -12 -7 -16 -27 -13 -19 2 -29
-2 -31 -12 -3 -19 36 -63 49 -55 13 9 11 -12 -4 -35 -8 -14 -9 -23 -2 -28 6
-4 12 -16 13 -27 2 -11 12 -29 21 -40 10 -11 25 -33 35 -48 9 -15 21 -25 26
-22 6 4 10 -1 10 -9 0 -8 -5 -18 -10 -21 -6 -4 -9 -1 -8 6 4 16 -44 34 -67 26
-11 -5 -14 -13 -10 -28 6 -19 4 -21 -18 -15 -17 4 -27 1 -31 -10 -3 -8 -11
-14 -18 -12 -18 4 -91 -69 -77 -77 5 -4 8 -13 5 -21 -3 -8 1 -17 9 -20 19 -8
19 -54 0 -80 -16 -21 -20 -44 -7 -44 4 0 20 11 36 25 16 14 24 25 17 25 -19 0
-9 62 13 83 21 19 37 22 51 8 21 -20 74 -16 95 7 11 12 27 22 34 22 16 0 41
54 31 69 -3 6 -1 11 5 11 7 0 10 7 6 15 -4 10 1 15 17 16 12 0 16 3 10 6 -20
7 -16 35 5 31 10 -2 16 -11 14 -22 -2 -13 3 -17 20 -16 38 3 43 1 44 -25 2
-24 -6 -29 -33 -26 -7 1 -13 -7 -13 -18 0 -13 -8 -21 -22 -23 -33 -4 -35 -36
-4 -48 16 -6 26 -17 26 -29 0 -24 35 -95 56 -112 16 -13 19 -45 4 -54 -6 -4
-7 -12 -3 -18 11 -17 11 -47 1 -53 -5 -3 -13 -17 -19 -30 -5 -16 -15 -24 -26
-22 -13 2 -20 -7 -26 -39 -9 -40 -11 -42 -61 -53 -51 -11 -80 -20 -136 -41
-25 -9 -28 -14 -19 -30 8 -17 6 -19 -18 -19 -43 0 -73 -11 -73 -26 0 -8 -7
-14 -15 -14 -8 0 -15 7 -15 15 0 15 -25 21 -34 7 -9 -15 21 -42 40 -36 12 3 6
-5 -14 -23 -18 -15 -32 -34 -32 -41 0 -10 -4 -9 -16 3 -11 11 -20 13 -27 6 -7
-7 -16 -7 -28 0 -16 8 -24 3 -46 -30 -29 -41 -67 -66 -84 -55 -6 3 -8 12 -5
19 3 8 -2 19 -9 25 -8 7 -13 16 -10 20 3 5 1 11 -5 15 -5 3 -10 0 -10 -7 0 -7
-10 1 -21 17 -18 26 -28 30 -70 32 -43 1 -49 -1 -49 -19 0 -15 -5 -19 -20 -15
-11 3 -18 1 -14 -4 3 -5 0 -9 -5 -9 -6 0 -10 -6 -9 -12 2 -8 -10 -13 -32 -14
-19 0 -42 -3 -50 -6 -8 -3 -48 -16 -87 -29 -40 -13 -73 -27 -73 -31 0 -14 -65
-8 -88 8 l-22 15 0 -585 c0 -322 3 -586 8 -586 30 1 50 14 44 28 -5 15 -3 15
11 4 14 -12 15 -16 2 -29 -8 -8 -19 -11 -25 -8 -5 3 -10 1 -10 -4 0 -6 5 -11
10 -11 18 0 11 -15 -13 -25 l-22 -10 -3 -567 -2 -567 44 -21 c25 -11 49 -20
55 -20 5 0 12 -4 15 -9 5 -7 -30 -3 -94 14 -51 13 33 -28 103 -50 49 -16 64
-24 50 -29 -10 -3 -24 -9 -32 -12 -8 -4 -11 -2 -7 4 3 6 3 13 -2 16 -5 3 -9
-19 -10 -48 -1 -54 15 -82 58 -99 31 -13 -67 6 -122 23 l-58 18 0 -283 0 -283
318 -4 c313 -3 388 3 378 29 -3 7 4 15 14 18 12 4 17 12 14 23 -5 15 -4 15 8
1 10 -12 17 -13 35 -4 17 9 20 14 11 23 -8 8 -9 12 -1 12 9 0 23 -21 23 -35 0
-1 -10 -6 -23 -10 l-22 -7 25 -8 c23 -7 23 -8 -10 -10 -23 -2 -28 -4 -15 -7
11 -3 23 -10 27 -17 6 -8 11 -7 17 4 6 8 12 12 15 9 8 -8 -5 -49 -16 -49 -5 0
-21 -9 -35 -20 -14 -11 -41 -20 -59 -20 -27 0 -34 4 -34 20 0 16 -7 20 -30 20
-19 0 -30 -5 -30 -14 0 -8 -14 -15 -35 -18 -24 -3 -35 0 -35 9 0 9 -16 13 -50
13 -27 0 -50 -4 -50 -10 0 -5 -13 -10 -30 -10 -17 0 -30 5 -30 13 0 7 -3 8 -8
2 -9 -12 -62 -14 -62 -2 0 11 -131 1 -139 -11 -9 -12 -61 -14 -61 -3 0 6 -9
11 -20 11 -11 0 -20 -5 -20 -11 0 -7 -14 -10 -35 -7 -29 3 -35 1 -35 -14 0
-10 7 -18 16 -18 14 0 14 -3 4 -15 -7 -8 -9 -15 -4 -15 4 0 3 -5 -4 -12 -7 -7
-12 -25 -12 -41 l0 -28 149 3 150 3 5 -25 c4 -25 0 -98 -9 -152 l-4 -28 274 0
c268 0 275 0 275 -20 0 -19 -15 -25 -49 -21 -7 2 -10 -2 -6 -9 5 -9 2 -10 -11
-3 -11 4 -39 8 -64 7 -25 -1 -194 -2 -377 -3 l-332 -1 -1 -965 0 -965 6000 0
6000 0 0 4060 0 4060 -2912 0 c-1602 0 -2923 -3 -2935 -6 -16 -4 -23 -14 -23
-30 0 -19 7 -26 30 -30 23 -5 30 -12 30 -30 0 -15 6 -24 15 -24 32 0 13 -18
-32 -31 -49 -13 -73 -29 -73 -48 0 -18 -13 -13 -37 15 l-22 26 -6 -28 c-11
-50 -14 -54 -40 -64 -14 -5 -24 -13 -23 -17 3 -14 -14 -57 -30 -76 -8 -9 -12
-20 -9 -23 3 -4 0 -22 -8 -41 -10 -23 -12 -41 -5 -52 11 -22 3 -58 -16 -65
-13 -5 -12 -9 1 -29 11 -18 13 -31 6 -49 -7 -19 -6 -29 4 -39 12 -12 12 -18 0
-39 -8 -14 -17 -31 -21 -37 -3 -7 1 -20 10 -29 17 -16 14 -46 -7 -72 -6 -7 -7
-35 -3 -67 5 -49 4 -55 -12 -55 -10 0 -26 -6 -36 -13 -16 -12 -17 -17 -5 -38
7 -13 12 -30 11 -37 -2 -7 20 4 48 24 28 20 54 34 57 31 9 -10 -49 -117 -69
-128 -10 -5 -18 -20 -18 -34 0 -44 60 -42 92 3 7 10 28 22 46 25 30 6 32 5 22
-13 -6 -12 -15 -18 -20 -15 -4 3 -16 2 -26 -2 -15 -6 -15 -7 5 -14 16 -7 20
-14 16 -32 -4 -15 -1 -28 9 -36 21 -18 20 -30 -5 -57 -20 -21 -20 -24 -5 -46
9 -12 16 -36 16 -53 0 -17 4 -35 9 -41 11 -11 2 -64 -11 -64 -5 0 -18 5 -29
10 -22 12 -23 11 -9 -24 5 -14 23 -32 40 -41 29 -15 37 -43 11 -37 -17 3 5
-36 38 -69 14 -14 40 -43 57 -65 17 -22 52 -50 78 -63 25 -14 51 -30 57 -38
22 -26 -17 -13 -127 41 -81 39 -121 66 -154 102 -43 46 -133 196 -207 347 -18
37 -38 67 -44 67 -5 0 -7 5 -4 10 4 6 2 52 -4 103 -6 50 -13 129 -17 175 -5
72 -10 89 -40 133 -46 66 -54 90 -64 184 -7 63 -5 86 6 110 20 39 18 269 -2
286 -18 14 -42 -44 -50 -119 -9 -90 -10 -97 -19 -97 -12 0 -24 51 -20 88 4 41
-9 12 -24 -53 -9 -41 -10 -37 -6 40 3 70 1 80 -8 58 -16 -42 -24 -34 -21 21 2
33 13 64 32 95 35 54 50 148 31 190 l-12 26 -1891 -3 c-1483 -2 -1903 -6
-1944 -16 -46 -10 -57 -10 -77 3 -30 20 -35 20 -35 0 0 -11 5 -14 16 -10 10 4
14 2 11 -6 -2 -7 -10 -12 -16 -11 -26 6 -9 -33 20 -44 17 -7 33 -21 36 -32 6
-23 18 -27 28 -11 3 6 28 10 54 10 31 0 53 5 61 15 15 18 42 19 59 3 10 -11
14 -10 22 5 11 19 39 23 39 6 0 -6 7 -9 15 -5 8 3 15 1 15 -5 0 -6 7 -6 20 1
15 8 19 17 15 31 -4 13 -2 19 9 19 9 0 16 4 16 9 0 14 41 24 52 13 6 -6 6 -12
-1 -16 -17 -11 -13 -36 5 -36 10 0 14 5 10 16 -3 8 -2 12 4 9 6 -3 10 -13 10
-21 0 -8 7 -17 15 -20 8 -4 15 -10 15 -14 0 -12 -48 -18 -59 -7 -16 16 -27 -2
-13 -21 17 -24 25 -42 21 -47 -2 -2 -17 -7 -33 -11 -26 -6 -29 -5 -24 14 7 26
-19 53 -32 33 -4 -8 -13 -10 -19 -7 -7 4 -11 -1 -11 -13 0 -11 -4 -22 -10 -26
-17 -10 1 -35 26 -35 24 0 25 -2 28 -62 1 -10 7 -23 14 -30 9 -9 7 -17 -10
-35 -18 -19 -21 -33 -19 -79 2 -53 1 -55 -19 -49 -24 8 -50 -10 -50 -35 0 -20
40 -40 80 -40 20 0 30 -5 30 -15 0 -8 -5 -15 -10 -15 -15 0 -50 -38 -50 -54 0
-8 7 -16 15 -20 19 -7 20 -50 1 -65 -8 -7 -14 -26 -13 -44 1 -44 -11 -89 -24
-82 -10 7 -69 -16 -69 -27 0 -3 -3 -13 -6 -22 -4 -11 -1 -14 14 -11 27 5 22
-15 -12 -50 -19 -19 -39 -28 -67 -30 -24 -1 -39 2 -39 9 0 6 -11 24 -25 40
-31 36 -31 49 -2 76 22 21 22 21 2 36 -11 8 -30 13 -42 11 -13 -2 -23 -1 -23
3 0 4 -9 10 -20 13 -15 4 -20 1 -18 -10 2 -9 -3 -18 -11 -21 -8 -3 -11 0 -7 7
4 6 1 11 -7 11 -8 0 -20 7 -27 15 -10 11 -9 18 4 30 9 9 16 13 16 9 0 -3 6 -1
14 5 22 19 16 62 -12 86 -24 20 -25 25 -12 40 17 20 23 82 9 90 -14 9 0 25 22
25 16 0 20 6 17 28 -2 15 -7 25 -13 22 -5 -3 -12 9 -15 25 -5 25 -10 30 -30
27 -19 -2 -22 0 -13 9 7 7 9 19 4 28 -8 18 -8 24 3 63 5 18 3 34 -9 52 -25 38
-45 33 -46 -11 -2 -59 2 -77 18 -95 15 -16 15 -18 0 -18 -20 0 -23 -26 -4 -33
8 -4 9 -8 1 -14 -22 -16 -35 -54 -32 -92 1 -22 7 -39 12 -38 6 1 10 -6 8 -15
-2 -12 4 -18 15 -19 15 0 14 -2 -3 -9 -12 -5 -26 -14 -30 -22 -12 -19 -13 -52
-1 -59 14 -10 -1 -29 -18 -22 -8 3 -15 0 -15 -7 0 -6 4 -8 10 -5 5 3 10 2 10
-4 0 -5 -4 -13 -10 -16 -5 -3 -10 -15 -10 -26 0 -10 5 -19 10 -19 6 0 10 7 10
15 0 8 5 15 10 15 6 0 10 -7 10 -15 0 -8 -4 -15 -10 -15 -5 0 -10 -10 -10 -23
0 -27 -46 -87 -66 -87 -8 0 -14 -4 -14 -10 0 -5 4 -10 9 -10 16 0 24 -41 11
-54 -10 -8 -12 -7 -7 9 l7 20 -15 -20 c-47 -66 -37 -62 -97 -37 -64 27 -68 27
-68 5 0 -15 2 -16 10 -3 5 8 10 13 10 10 9 -53 7 -98 -3 -111 -13 -18 -107
-31 -107 -15 0 5 -3 7 -6 3 -4 -3 -14 1 -22 10 -15 15 -17 14 -22 -8 -3 -13
-14 -25 -23 -27 -25 -5 -21 9 13 46 24 27 30 42 30 78 0 24 5 44 10 44 11 0
14 43 4 53 -20 19 -4 137 18 137 6 0 8 11 6 25 -4 17 0 29 11 35 10 6 11 10 3
10 -7 0 -24 -7 -37 -16 -27 -17 -55 -15 -117 8 -27 10 -35 17 -27 25 8 8 8 13
0 17 -6 4 -11 3 -11 -3 0 -6 -7 -8 -16 -4 -9 3 -20 0 -24 -7 -5 -8 -15 -10
-26 -5 -11 5 -24 7 -31 6 -6 -1 -17 12 -24 28 -10 23 -16 27 -26 19 -8 -6 -13
-6 -13 -1 0 5 -11 16 -25 23 -29 16 -33 53 -9 77 14 15 14 17 0 25 -23 13 -20
21 17 37 17 8 35 19 39 25 4 6 13 5 24 -5 13 -10 18 -11 21 -2 2 7 11 9 20 6
12 -5 14 -3 8 6 -6 10 -2 11 15 6 14 -5 25 -2 30 6 12 18 38 20 44 3 3 -8 -1
-14 -10 -14 -13 0 -13 -2 -2 -13 24 -24 46 -26 64 -6 9 10 25 19 35 19 10 0
26 17 38 40 23 44 20 56 -20 108 -9 12 -15 31 -12 42 3 11 0 27 -7 35 -10 12
-7 16 16 25 22 9 25 13 14 20 -8 5 -12 10 -10 12 52 33 70 35 70 6 0 -17 3
-19 12 -10 18 18 25 15 32 -18 4 -25 11 -30 33 -30 24 -1 26 -2 13 -13 -22
-17 -23 -96 -1 -95 9 1 26 -2 38 -6 22 -7 23 -5 21 64 -1 52 -5 73 -15 77 -11
4 -12 8 -3 13 7 4 14 27 15 50 3 43 38 90 66 90 6 0 18 8 25 18 10 12 16 14
21 5 6 -8 13 -8 27 3 17 12 -79 14 -712 14 l-732 0 0 -536z m4715 516 c3 -5 2
-10 -3 -10 -5 0 -15 -15 -23 -32 -7 -18 -16 -35 -20 -38 -3 -3 -20 -30 -37
-60 -18 -31 -45 -69 -62 -85 -16 -16 -30 -32 -30 -36 0 -5 -21 -31 -47 -60
-27 -28 -47 -56 -45 -62 2 -6 -2 -13 -9 -17 -6 -4 0 -7 14 -7 17 0 24 4 22 16
-1 9 4 24 12 33 13 15 17 15 29 3 18 -18 18 -39 -1 -55 -8 -7 -15 -20 -15 -30
0 -10 -7 -21 -16 -24 -10 -4 -13 -13 -9 -25 3 -10 -1 -23 -10 -31 -8 -7 -12
-16 -9 -21 3 -5 -3 -21 -13 -37 -10 -15 -20 -40 -22 -57 -1 -16 -15 -48 -29
-70 -15 -22 -32 -52 -38 -66 -18 -39 -33 -44 -39 -12 -32 151 -52 214 -64 195
-10 -16 17 -183 32 -198 3 -4 2 -17 -4 -31 -8 -22 -7 -24 13 -18 19 6 21 5 11
-6 -7 -7 -13 -23 -13 -35 0 -34 -19 -39 -26 -7 -13 58 -32 108 -40 106 -14 -3
-17 -35 -4 -43 8 -5 8 -13 -1 -33 -6 -14 -9 -33 -5 -43 6 -16 8 -16 22 2 13
17 13 16 1 -15 -10 -28 -10 -47 0 -105 14 -81 19 -107 38 -226 8 -47 18 -100
24 -117 5 -18 6 -35 1 -38 -4 -3 -10 5 -13 18 -40 175 -49 223 -53 287 -3 41
-9 79 -14 85 -4 5 -10 21 -12 35 -2 17 -9 25 -23 25 -14 0 -20 7 -21 25 -1 22
-20 70 -27 70 -2 0 -4 -14 -5 -31 -2 -19 2 -28 8 -24 5 3 10 5 10 3 -6 -39
-30 -103 -41 -107 -12 -4 -12 -2 0 12 9 12 10 17 2 17 -9 0 -10 14 -6 48 4 32
3 43 -3 33 -8 -11 -11 -8 -14 15 -3 28 -4 26 -30 -26 -23 -46 -29 -74 -34
-163 -6 -94 -10 -110 -28 -123 -11 -7 -15 -14 -8 -14 9 0 10 -5 2 -19 -22 -42
-3 -152 45 -257 11 -23 12 -39 4 -68 -9 -34 -9 -54 6 -116 5 -22 4 -23 -5 -5
-9 18 -10 17 -7 -7 3 -16 0 -28 -4 -28 -5 0 -4 -11 1 -25 5 -14 6 -25 3 -25
-4 0 -2 -5 5 -12 7 -7 12 -19 12 -27 0 -8 11 -29 26 -48 14 -18 23 -33 20 -33
-3 0 6 -25 20 -55 19 -43 22 -60 14 -75 -22 -41 -104 -35 -126 9 -8 16 -13 19
-17 9 -4 -9 -6 -7 -6 5 -1 9 -5 17 -11 17 -18 0 -10 32 15 62 30 36 33 59 5
33 -24 -21 -80 -134 -81 -161 -1 -23 -37 52 -38 79 -1 10 -5 15 -11 12 -5 -3
-7 -18 -5 -33 13 -85 14 -112 5 -112 -5 0 -14 15 -19 33 l-9 32 -1 -38 c-1
-32 6 -45 49 -89 28 -29 48 -58 46 -65 -3 -8 2 -13 12 -13 14 0 14 -2 3 -9 -8
-5 -20 -7 -26 -5 -7 3 -15 -2 -19 -11 -3 -9 -10 -14 -15 -10 -5 3 -13 0 -17
-6 -5 -8 -3 -9 6 -4 10 6 11 4 6 -11 -5 -10 -11 -27 -13 -36 -3 -10 -9 -18
-13 -18 -4 0 -5 -11 -2 -25 2 -14 2 -25 -1 -25 -8 0 -47 70 -47 84 0 7 -11 25
-25 40 -24 26 -25 32 -20 104 3 43 9 93 12 112 7 35 7 35 13 -15 4 -32 3 -53
-4 -57 -8 -6 -8 -8 0 -8 20 0 46 38 40 58 -4 11 -2 42 5 68 6 28 11 128 10
229 0 150 5 215 30 390 16 116 46 280 66 365 25 106 37 183 38 245 3 113 36
262 56 249 5 -3 6 2 3 10 -3 9 -1 16 5 16 6 0 10 3 9 8 -2 4 0 7 3 7 11 0 49
37 49 47 0 5 -7 2 -16 -6 -8 -9 -18 -16 -22 -16 -4 0 8 13 27 28 18 15 60 53
92 85 56 54 79 68 79 48 0 -6 -5 -13 -11 -16 -6 -4 -8 -14 -5 -22 3 -8 1 -11
-4 -8 -6 3 -10 0 -10 -8 0 -10 7 -13 20 -10 15 4 20 14 20 38 0 18 8 39 18 48
17 16 20 17 47 17 8 0 15 5 15 10 0 14 -33 13 -48 -2 -7 -7 -12 -8 -12 -4 0 5
-7 2 -16 -5 -15 -12 -16 -10 -9 21 11 58 48 77 135 72 13 -1 27 3 30 8 3 5 11
1 18 -10 10 -16 8 -20 -8 -25 -26 -8 -26 -29 0 -22 17 4 18 2 9 -15 -8 -15 -8
-22 1 -28 7 -4 9 -13 6 -19 -13 -20 18 -11 45 13 28 25 78 95 84 118 10 41 19
57 41 67 21 9 25 15 24 36 -1 7 53 54 62 55 4 0 10 -4 13 -10z m259 -32 c11
-1 21 -9 22 -16 1 -7 0 -8 -3 -2 -2 5 -11 10 -19 10 -11 0 -12 -5 -6 -17 5
-10 7 -23 5 -30 -2 -6 0 -14 6 -17 6 -4 4 -17 -5 -35 -8 -16 -17 -60 -20 -98
-7 -96 -31 -199 -60 -257 -21 -44 -22 -50 -8 -61 18 -13 10 -60 -7 -49 -6 3
-8 13 -5 21 3 8 1 11 -4 8 -6 -3 -10 -1 -10 5 0 7 -8 9 -19 5 -29 -9 -31 5
-11 63 28 78 34 250 11 294 -9 19 -22 33 -28 31 -6 -2 -14 1 -18 6 -3 6 2 11
12 12 10 0 13 3 7 5 -13 5 -6 54 10 69 17 17 45 25 51 15 11 -18 37 -11 31 8
-3 10 2 27 11 39 14 17 19 18 28 8 5 -7 19 -15 29 -17z m-2196 -673 c-2 -25 2
-33 27 -46 24 -14 30 -23 30 -51 0 -19 6 -42 13 -50 20 -25 32 -77 22 -102 -6
-16 -3 -29 11 -47 24 -32 24 -39 -3 -39 -13 0 -48 -9 -78 -19 l-55 -19 -24 27
c-12 14 -27 36 -32 49 -5 12 -17 22 -28 22 -23 0 -53 43 -45 65 5 13 9 13 22
3 14 -12 14 -10 1 12 -27 50 -16 169 15 157 8 -3 20 1 26 9 7 8 22 14 34 14
11 0 17 4 11 8 -9 6 -12 31 -6 54 0 3 15 1 31 -5 26 -10 30 -16 28 -42z m1292
-845 c0 -5 0 -13 -1 -16 0 -4 3 -10 8 -13 7 -5 173 -263 216 -336 7 -11 14
-22 17 -25 14 -14 40 -61 40 -74 0 -15 -79 -28 -81 -14 -2 12 -6 27 -9 33 -1
3 -4 10 -5 15 -1 6 -3 11 -5 13 -1 1 -3 10 -5 19 -2 9 -26 39 -53 66 -39 38
-49 55 -45 71 4 17 2 20 -12 14 -14 -5 -16 -3 -10 7 12 19 9 94 -3 117 -6 10
-19 18 -29 18 -13 0 -17 7 -16 23 2 12 -2 22 -8 22 -5 0 -8 4 -5 9 4 5 2 21
-4 35 -6 17 -6 26 0 26 6 0 10 -4 10 -10z m-1472 -232 c7 -7 12 -24 12 -40 0
-15 7 -31 17 -37 17 -9 17 -11 -1 -30 -10 -11 -15 -25 -11 -30 10 -17 -47 -13
-83 5 -18 8 -37 12 -43 8 -8 -5 -8 -1 0 14 8 15 8 23 0 27 -10 7 4 35 39 76
19 21 52 25 70 7z m5152 -393 c7 -8 17 -15 22 -15 6 0 4 8 -3 17 -12 13 52
-29 97 -67 7 -5 15 -6 18 -3 3 4 6 2 6 -4 0 -18 -13 -23 -28 -10 -13 10 -14 9
-4 -10 17 -32 15 -50 -4 -27 -15 19 -16 19 -10 -1 6 -18 4 -18 -13 3 -11 12
-22 22 -25 22 -13 0 -5 -21 16 -42 16 -16 17 -20 5 -15 -10 4 -17 1 -18 -6 -2
-17 -1 -20 7 -42 8 -19 8 -19 -13 0 -11 11 -23 27 -26 35 -4 10 -6 7 -6 -7 -1
-13 3 -23 8 -23 14 0 1 -38 -18 -52 -14 -12 -14 -11 -3 4 17 21 6 44 -13 28
-8 -7 -11 -24 -8 -50 5 -38 5 -39 -21 -34 -16 2 -26 0 -26 -7 0 -8 -4 -8 -15
1 -8 7 -15 8 -15 2 0 -5 7 -15 15 -22 12 -10 13 -16 4 -26 -16 -19 -27 -17
-25 4 0 10 -16 34 -36 55 -21 21 -38 34 -38 29 0 -5 9 -17 21 -28 11 -10 25
-27 31 -38 9 -16 7 -18 -11 -13 -27 7 -26 1 2 -26 13 -12 15 -16 5 -8 -10 8
-18 11 -18 7 0 -3 -11 1 -25 10 -14 9 -25 12 -25 6 0 -5 7 -12 15 -16 8 -3 15
-13 15 -23 0 -15 2 -16 10 -3 5 8 10 11 10 5 0 -5 -4 -16 -9 -24 -7 -11 -11
-10 -22 7 -7 11 -19 18 -26 15 -10 -4 -11 -9 -2 -19 10 -12 8 -13 -6 -8 -15 6
-17 3 -13 -14 4 -16 2 -19 -10 -15 -12 5 -14 2 -9 -13 6 -17 6 -17 -5 -3 -20
24 -35 12 -31 -24 3 -22 2 -28 -5 -18 -5 7 -14 11 -20 8 -5 -4 -17 2 -27 13
-26 28 -39 25 -19 -5 17 -26 8 -34 -16 -12 -8 6 -6 2 4 -10 24 -28 6 -31 -19
-3 -10 11 -23 20 -30 20 -6 0 -20 7 -31 16 -18 15 -18 15 7 10 19 -4 29 -1 33
10 3 9 2 12 -5 9 -6 -4 -19 1 -29 10 -11 10 -26 15 -36 11 -36 -14 -32 8 8 46
24 22 84 79 133 125 50 47 115 109 146 139 30 30 61 54 67 54 7 0 12 5 12 11
0 5 5 7 10 4 6 -3 10 -2 10 3 0 12 47 62 58 62 5 0 15 -7 22 -15z m-3680 -105
c0 -9 -60 -42 -60 -33 0 4 -7 -1 -15 -11 -8 -11 -15 -14 -15 -8 0 7 -4 12 -9
12 -6 0 -9 -9 -8 -21 1 -15 6 -19 22 -14 64 18 137 33 129 26 -13 -12 -206
-90 -229 -93 -18 -3 -20 2 -18 41 2 58 8 69 40 83 43 17 163 31 163 18z m204
-135 c-4 -8 -10 -15 -14 -15 -4 0 -44 -35 -88 -77 -57 -55 -87 -77 -102 -75
-11 2 -20 -2 -20 -8 0 -7 8 -9 20 -5 14 4 22 1 26 -10 4 -9 13 -14 21 -11 8 3
11 1 8 -4 -3 -6 -1 -10 6 -10 6 0 9 -8 6 -20 -3 -11 0 -18 7 -17 6 1 10 -4 9
-10 -4 -18 12 -16 27 2 9 11 9 15 1 15 -16 0 -3 51 16 67 9 7 29 25 47 40 17
16 45 38 62 51 18 12 35 33 38 47 9 37 27 31 19 -7 -3 -18 -21 -52 -40 -76
-25 -33 -33 -54 -33 -84 0 -35 -2 -39 -15 -28 -13 10 -19 9 -38 -6 -12 -10
-24 -20 -26 -21 -2 -1 1 -9 8 -16 6 -8 9 -21 6 -28 -2 -8 -7 -26 -9 -41 -6
-38 24 -45 98 -23 62 18 68 17 71 -18 1 -12 5 -21 8 -19 4 1 12 2 18 2 6 0 8
9 4 21 -5 15 -4 19 4 15 6 -4 11 -13 11 -20 0 -7 7 -27 16 -44 8 -18 13 -36 9
-42 -3 -5 -1 -10 5 -10 6 0 9 -4 6 -8 -3 -5 9 -25 25 -45 17 -20 27 -41 24
-47 -3 -5 3 -10 14 -10 22 0 41 -27 41 -59 0 -11 7 -24 16 -29 13 -7 21 -30
26 -80 1 -7 7 -11 14 -8 8 3 16 1 19 -4 4 -6 0 -10 -7 -11 -10 0 -10 -2 0 -6
6 -2 12 -13 12 -24 0 -10 5 -19 11 -19 5 0 8 4 5 8 -2 4 0 14 5 22 10 16 6
-21 -6 -60 -4 -14 -2 -20 9 -20 10 0 13 -6 9 -16 -4 -10 0 -22 9 -28 15 -11
18 -17 18 -37 0 -5 5 -7 11 -3 6 3 10 -1 9 -12 -4 -38 0 -65 10 -59 13 8 91
-75 83 -88 -4 -6 0 -8 10 -4 16 6 22 -4 18 -27 -1 -4 12 -6 29 -4 19 3 30 0
30 -7 0 -7 9 -20 20 -30 14 -12 17 -22 10 -30 -7 -8 -2 -16 15 -25 13 -7 22
-16 20 -21 -7 -11 25 -40 36 -34 5 4 9 -9 9 -27 0 -22 3 -29 9 -19 11 16 16 7
25 -41 4 -24 11 -35 20 -32 7 3 18 -7 25 -22 11 -26 12 -26 27 -8 14 18 15 18
11 -1 -2 -12 8 -31 25 -48 16 -15 26 -33 22 -39 -4 -6 -3 -8 4 -5 6 4 15 -12
23 -43 7 -27 18 -51 25 -54 9 -3 11 1 7 12 -3 9 4 5 15 -10 12 -14 22 -31 22
-37 0 -6 6 -11 14 -11 8 0 16 -7 20 -15 3 -8 1 -15 -3 -15 -5 0 -12 6 -14 13
-3 6 -6 3 -6 -8 -1 -25 40 -73 57 -67 7 2 12 -2 10 -9 -1 -8 6 -26 16 -41 10
-16 16 -35 12 -43 -8 -21 -27 -19 -19 3 3 9 3 14 -1 11 -4 -4 -8 -16 -11 -28
-3 -16 1 -21 18 -21 29 0 43 -10 51 -37 4 -14 12 -20 22 -16 10 4 14 -3 15
-23 1 -16 1 -32 0 -37 -1 -4 24 -32 54 -62 30 -31 55 -51 55 -45 0 6 5 8 10 5
6 -4 8 -11 5 -16 -4 -5 0 -9 7 -9 32 0 36 -21 14 -74 -26 -61 -27 -92 -4 -88
10 1 20 -9 27 -29 6 -18 20 -38 31 -46 25 -18 25 -29 0 -104 -23 -67 -20 -89
16 -128 13 -14 24 -29 24 -33 0 -5 5 -8 10 -8 6 0 10 7 10 15 0 23 16 18 28
-10 15 -32 15 -35 2 -35 -5 0 -10 10 -10 22 0 16 -3 19 -11 11 -8 -8 -8 -17 0
-32 14 -26 27 -27 40 -3 9 15 12 15 21 2 5 -8 10 -29 10 -47 0 -23 6 -33 20
-38 11 -3 19 -10 17 -14 -3 -9 49 -71 59 -71 19 0 84 -36 84 -47 0 -21 -42
-14 -85 12 -22 14 -48 25 -59 25 -10 0 -61 44 -115 99 -71 73 -105 100 -130
106 -19 4 -51 23 -70 41 -42 40 -45 40 -64 13 -32 -44 8 -103 83 -124 27 -7
57 -33 114 -97 60 -68 84 -88 104 -89 15 0 45 -9 67 -20 l40 -19 -50 7 c-27 3
-60 10 -73 14 -13 5 -38 9 -55 9 -18 0 -42 7 -53 15 -12 8 -25 11 -29 7 -5 -4
-5 -1 -1 5 4 7 -2 22 -13 35 -12 12 -21 16 -21 10 0 -7 -8 -12 -17 -13 -16 0
-16 -1 1 -8 11 -4 15 -10 10 -12 -21 -12 -38 -2 -41 24 -3 18 0 26 7 22 5 -3
10 -4 10 -1 0 2 -24 18 -54 34 -36 19 -65 28 -86 26 -17 -2 -29 0 -25 5 8 14
-14 24 -52 23 -18 -1 -33 3 -33 8 0 6 6 10 13 10 6 0 3 6 -8 12 -11 6 -22 14
-25 18 -3 3 -22 16 -42 29 l-38 23 0 -91 c0 -54 4 -91 10 -91 6 0 10 -14 10
-31 0 -25 -3 -30 -22 -27 -22 3 -36 42 -18 53 16 10 12 187 -5 235 -8 23 -15
58 -15 76 0 19 -4 34 -10 34 -5 0 -11 -44 -13 -97 -2 -84 -3 -77 -6 47 -1 80
-6 154 -10 165 -5 11 -4 25 1 31 9 12 0 99 -10 89 -3 -3 -15 1 -28 9 -26 18
-36 11 -24 -18 6 -18 4 -22 -12 -23 -13 -1 -18 3 -14 12 4 12 1 12 -19 3 -13
-6 -22 -14 -20 -18 3 -4 -3 -7 -13 -6 -12 1 -18 -8 -20 -26 -2 -16 1 -28 7
-28 6 0 11 9 11 20 0 11 5 20 10 20 9 0 15 -55 10 -107 -1 -16 4 -23 17 -24
33 -2 38 -4 38 -14 0 -6 -26 -10 -60 -10 -33 0 -61 5 -62 10 -1 6 13 9 31 7
29 -2 33 0 30 15 -7 24 -61 56 -68 40 -3 -7 -3 -2 0 11 4 16 1 22 -13 23 -17
1 -17 2 0 6 20 5 22 14 5 31 -9 9 -9 12 3 12 8 0 22 9 32 20 9 11 25 20 36 20
10 0 22 7 25 16 3 8 10 13 15 10 5 -3 11 1 15 9 3 10 19 15 42 15 l37 0 -7 67
c-4 37 -12 73 -18 80 -6 7 -27 13 -48 13 -26 0 -40 5 -44 16 -4 9 -3 20 0 23
4 3 9 0 11 -6 3 -7 16 -13 30 -13 24 0 25 1 9 23 -8 12 -24 41 -35 65 l-20 43
-61 -3 -60 -3 0 -60 0 -60 45 -1 c25 0 45 4 45 8 0 5 4 7 10 3 14 -8 0 -35
-18 -35 -13 0 -12 -3 4 -15 11 -8 14 -15 7 -15 -7 0 -13 -5 -13 -10 0 -6 11
-8 25 -6 14 3 25 0 25 -5 0 -5 12 -7 27 -5 36 7 53 -9 53 -49 l0 -33 -57 -4
c-32 -1 -76 -1 -97 2 -35 4 -40 9 -43 35 -3 16 -6 32 -9 34 -2 2 -4 -274 -5
-615 0 -368 -4 -611 -9 -599 -5 11 -9 162 -9 335 0 173 0 442 0 598 l-1 282
-65 0 c-37 0 -65 4 -65 10 0 6 20 10 45 10 36 0 45 3 45 18 0 14 -2 14 -9 3
-7 -11 -16 -12 -43 -4 -25 8 -28 11 -11 12 46 2 52 9 36 42 -12 24 -17 27 -28
15 -8 -8 -25 -11 -41 -8 -19 3 -25 2 -19 -7 4 -8 21 -11 41 -8 25 4 34 1 34
-9 0 -11 -10 -13 -36 -11 -27 3 -34 1 -30 -9 3 -8 1 -14 -4 -14 -5 0 -12 9
-15 21 -6 17 -12 19 -37 14 -23 -6 -29 -4 -26 6 3 8 18 16 34 17 16 2 34 8 40
13 11 9 64 12 122 6 l32 -4 1 101 c0 56 4 119 8 141 8 34 9 28 10 -42 l1 -83
58 2 57 2 -52 3 c-39 3 -53 8 -53 19 0 11 9 14 40 11 22 -2 40 0 40 5 0 4 -5
8 -11 8 -6 0 -9 6 -7 12 4 12 0 20 -29 53 -7 7 -13 25 -13 39 0 23 -9 30 -31
28 -3 -1 -12 18 -18 41 -7 23 -25 56 -41 72 -15 17 -40 55 -56 85 -16 30 -43
72 -61 93 -18 20 -33 41 -33 46 0 6 -13 24 -30 42 l-29 32 3 -62 c2 -63 -8
-76 -29 -34 -6 11 -17 18 -25 15 -9 -3 -8 1 4 10 12 10 16 20 11 29 -5 8 -4
11 0 6 5 -4 14 5 20 20 13 32 12 36 -67 143 -78 107 -112 150 -141 182 -15 16
-25 33 -22 38 3 4 -4 19 -15 33 -11 14 -20 30 -20 35 0 5 -6 15 -14 21 -8 7
-22 26 -31 44 -9 18 -27 50 -40 72 -13 22 -36 63 -50 90 -15 28 -32 57 -40 65
-7 8 -16 26 -20 40 -4 14 -25 59 -46 100 -22 41 -39 85 -39 97 0 32 -20 72
-40 78 -20 6 -54 79 -69 146 -6 24 -17 61 -26 81 -8 21 -15 42 -15 47 0 19 28
0 34 -22 4 -16 8 -19 14 -9 5 7 35 14 73 17 75 4 148 18 204 39 52 19 66 19
59 1z m-2694 -929 c0 -8 15 -18 33 -22 17 -4 35 -9 40 -10 4 -1 12 -2 18 -3 5
0 7 -5 4 -11 -3 -5 -1 -10 5 -10 6 0 8 -5 5 -11 -5 -7 -15 -5 -31 5 -13 9 -27
16 -31 16 -4 0 10 -12 32 -25 22 -14 36 -25 32 -25 -5 0 -5 -5 -1 -12 5 -8 10
-6 15 8 7 18 8 17 8 -3 1 -12 6 -25 11 -28 6 -3 9 -21 9 -38 l-2 -32 -4 30
c-3 17 -9 35 -15 40 -6 7 -7 -2 -3 -26 11 -62 -37 -128 -112 -154 l-38 -14 38
-1 c25 0 37 -5 37 -14 0 -11 -21 -14 -95 -15 -79 -1 -95 1 -95 14 0 11 11 15
43 16 41 1 41 1 12 10 -57 18 -104 74 -106 128 -1 20 -7 -22 -14 -94 l-12
-130 -1 153 c-1 99 2 152 8 152 6 0 14 -10 19 -22 l8 -23 8 25 c5 14 8 41 6
60 -1 21 1 30 7 23 8 -12 46 1 122 42 33 18 40 18 40 1z m752 -11 c14 -18 28
-25 51 -24 31 1 31 1 7 9 -35 11 -26 12 258 14 168 2 242 -1 242 -8 0 -7 -35
-10 -106 -8 -67 2 -110 -1 -119 -8 -9 -8 -15 -8 -20 0 -10 16 -38 12 -32 -4 4
-9 -1 -16 -11 -18 -12 -2 -13 -6 -5 -11 6 -4 18 0 26 8 21 20 27 19 27 -6 0
-18 3 -19 15 -9 8 6 23 9 33 6 13 -4 22 -1 26 9 8 23 46 20 41 -4 -3 -16 4
-18 70 -19 41 0 82 -5 92 -11 16 -9 15 -11 -7 -12 -14 0 -38 -2 -53 -3 -16 -1
-30 1 -32 4 -3 5 -67 5 -491 -1 l-221 -3 -7 -110 c-3 -61 -6 -139 -6 -173 0
-40 -4 -63 -11 -63 -7 0 -9 12 -5 35 7 33 5 35 -21 35 -15 0 -23 4 -18 8 6 4
10 21 9 37 -6 103 -22 36 -23 -97 -1 -65 -5 -108 -11 -108 -5 0 -11 26 -12 58
-2 56 -2 56 -5 10 -2 -27 -8 -48 -14 -48 -5 0 -9 7 -9 15 0 10 -10 15 -33 15
l-34 0 5 155 c5 153 4 155 -17 155 -11 0 -21 4 -21 10 0 12 65 24 85 16 9 -3
13 -2 10 4 -3 6 -24 10 -46 10 -26 0 -39 4 -39 14 0 14 -46 11 -55 -3 -2 -4
-5 -66 -7 -137 -1 -71 -5 -154 -9 -184 -6 -55 -6 -55 -9 25 -2 44 -4 90 -4
103 0 12 -5 22 -10 22 -6 0 -5 5 2 12 19 19 15 48 -8 48 -11 0 -20 5 -20 11 0
5 5 7 12 3 8 -5 9 -2 5 9 -3 9 0 37 7 62 8 25 11 45 8 45 -19 1 27 20 47 20
31 0 22 9 -12 12 -14 1 -23 6 -21 10 3 5 9 6 13 4 4 -3 8 1 8 9 0 17 -18 15
-34 -5 -11 -13 -12 -13 -7 3 4 12 1 17 -11 17 -15 0 -15 1 0 16 18 18 14 29
-8 21 -15 -6 -14 16 -47 -862 -11 -297 -23 -544 -25 -550 -5 -11 3 400 10 510
3 39 7 192 10 340 9 413 15 558 27 572 8 10 75 13 280 13 l270 0 20 -25z
m1895 -30 c104 -42 110 -181 10 -240 -43 -26 -117 -24 -155 4 -141 100 -17
301 145 236z m5296 1 c43 -17 85 -68 93 -111 17 -91 -78 -172 -176 -150 -43 9
-96 58 -111 102 -35 107 84 205 194 159z m-5163 -287 c0 -222 2 -250 15 -239
13 10 15 9 15 -10 0 -15 5 -20 18 -18 21 4 57 -26 48 -41 -4 -7 -1 -8 8 -5 9
4 16 1 16 -6 0 -7 7 -10 15 -6 10 3 14 -1 13 -12 -3 -44 1 -51 30 -43 16 5 26
14 26 24 -1 9 2 14 7 11 5 -3 9 4 9 16 0 12 5 18 10 15 6 -3 7 -17 4 -31 -4
-17 -1 -26 10 -30 9 -3 16 -11 16 -16 0 -6 -8 -7 -17 -4 -16 6 -16 6 0 -12 9
-10 17 -31 17 -47 0 -23 -2 -26 -15 -15 -17 14 -31 8 -20 -9 3 -6 21 -11 40
-11 37 0 56 -17 34 -31 -8 -5 -9 -9 -3 -9 6 0 14 3 17 6 4 4 20 8 36 9 24 2
29 -1 29 -21 0 -14 -5 -21 -11 -17 -6 3 -7 1 -3 -6 5 -7 12 -9 19 -3 14 11 47
12 47 1 0 -4 -8 -15 -17 -26 -10 -10 -14 -13 -9 -6 5 9 4 13 -5 13 -8 0 -19
-10 -24 -22 -12 -26 -42 -40 -32 -14 4 10 1 16 -7 16 -8 0 -21 11 -29 24 -11
16 -24 23 -46 22 -31 -1 -45 -16 -16 -16 8 0 15 -5 15 -11 0 -6 -9 -9 -20 -6
-17 4 -20 0 -20 -29 0 -20 8 -42 19 -53 10 -10 21 -30 25 -45 6 -25 5 -27 -21
-24 -15 2 -26 8 -23 13 3 6 8 9 13 8 4 -2 7 1 7 7 0 5 -20 7 -48 3 -40 -4 -49
-3 -49 10 0 12 8 14 34 10 21 -4 33 -2 33 6 0 6 -18 11 -45 11 -48 0 -64 19
-17 21 15 1 30 1 35 0 4 0 7 4 7 9 0 6 -25 10 -55 10 -30 0 -55 5 -55 10 0 10
14 14 38 11 6 -1 12 5 12 14 0 8 7 15 16 15 9 0 14 -6 11 -12 -3 -8 5 -14 18
-14 18 -1 24 4 27 28 4 24 2 29 -13 25 -30 -8 -66 49 -51 81 6 12 -1 26 -25
49 -18 17 -33 26 -33 20 -1 -7 -9 4 -19 23 -9 19 -23 34 -30 32 -7 -1 -15 7
-18 18 -11 41 -20 8 -22 -77 -1 -48 -4 -90 -7 -92 -2 -3 -4 165 -4 372 1 232
5 377 10 377 6 0 10 -98 10 -251z m2014 169 c-137 -143 -145 -155 -138 -196 7
-41 22 -65 35 -56 5 2 11 -7 15 -22 5 -20 2 -31 -12 -41 -10 -8 -18 -15 -16
-16 6 -5 -21 -67 -29 -67 -5 0 -9 -7 -9 -16 0 -8 -4 -13 -10 -9 -5 3 -8 -7 -7
-25 l2 -31 52 54 c29 30 55 52 59 48 4 -3 4 2 1 11 -3 10 0 24 8 32 8 8 15 19
15 25 0 6 7 8 15 5 10 -4 15 0 15 11 0 11 -5 15 -14 12 -16 -6 -27 13 -25 46
1 20 2 20 10 -3 6 -17 7 -4 5 44 -2 38 0 79 6 91 9 20 13 21 49 11 21 -5 40
-15 40 -21 1 -5 3 -21 5 -35 6 -46 -6 -81 -25 -75 -22 7 -56 -18 -47 -33 4 -7
16 -12 27 -12 10 0 20 -4 20 -10 1 -5 2 -14 3 -19 3 -22 14 -20 20 4 8 32 18
32 33 0 7 -17 8 -25 1 -25 -6 0 -4 -8 4 -17 24 -27 48 -79 48 -103 0 -15 6
-20 23 -19 12 1 41 1 64 1 36 -2 42 -6 52 -32 9 -28 7 -34 -12 -31 -5 1 -6 -3
-3 -8 6 -9 -41 -61 -55 -61 -14 0 -19 18 -7 23 9 4 9 6 1 6 -6 1 -24 -10 -40
-23 -16 -13 -38 -26 -48 -28 -18 -3 -20 2 -18 53 1 50 -1 58 -19 62 -11 3 -17
10 -14 16 4 6 -7 3 -24 -7 -21 -12 -33 -14 -38 -6 -4 6 -22 16 -39 22 -35 12
-51 3 -73 -39 -6 -10 -17 -19 -25 -19 -7 0 -15 -6 -18 -12 -3 -10 -9 -10 -26
0 -20 11 -23 9 -42 -35 -12 -27 -25 -55 -29 -63 -3 -8 -16 -19 -28 -25 -24
-10 -30 -41 -10 -47 8 -3 5 -15 -11 -36 -20 -29 -21 -32 -4 -32 17 -1 16 -2
-2 -16 -11 -8 -20 -20 -20 -27 0 -8 -25 -12 -80 -13 -69 -1 -73 0 -25 5 33 4
50 9 43 14 -17 11 -16 60 1 102 15 35 15 35 -13 35 -15 0 -32 -5 -39 -12 -9
-9 -12 -6 -12 16 0 24 2 26 14 17 8 -7 31 -11 52 -9 31 2 39 8 45 30 4 15 17
41 29 57 11 17 23 39 25 48 14 70 27 119 34 128 11 14 49 142 61 207 10 49 18
61 113 156 56 56 106 102 112 102 5 0 -18 -28 -51 -62z m-3232 -126 c29 -17
39 -38 13 -28 -9 3 -15 0 -15 -9 0 -9 15 -16 38 -20 20 -4 56 -13 79 -21 24
-9 48 -12 55 -8 7 4 10 4 6 0 -4 -5 23 -23 60 -42 57 -28 139 -89 202 -148 36
-34 111 -195 135 -291 13 -52 12 -187 -2 -233 -7 -25 -11 -48 -8 -52 3 -4 -2
-13 -10 -20 -15 -13 -14 10 6 113 5 30 5 74 -1 119 -14 97 -18 113 -56 195
-45 100 -188 245 -289 293 -83 40 -198 72 -204 58 -2 -6 -7 -4 -12 3 -12 20
-187 17 -269 -5 -157 -43 -263 -107 -374 -227 -74 -81 -131 -185 -140 -262 -4
-26 -11 -59 -16 -73 -6 -14 -11 -58 -12 -97 l-2 -72 -6 95 -6 95 -2 -104 c-1
-67 3 -124 14 -165 18 -72 72 -178 115 -227 l29 -34 -26 50 c-15 28 -30 54
-35 60 -5 5 -9 13 -9 18 0 5 17 -13 39 -40 49 -62 127 -131 214 -189 37 -25
67 -47 67 -49 0 -2 -19 2 -41 10 -23 8 -44 15 -47 15 -17 0 44 -33 110 -60 68
-28 71 -29 36 -30 -65 0 -90 -68 -43 -116 25 -25 25 -25 3 -19 -56 17 -143 56
-194 86 -87 53 -222 199 -271 294 -172 331 -83 730 216 968 114 91 237 145
421 186 63 14 196 4 232 -17z m1093 -106 c90 -38 100 -171 19 -235 -15 -12
-21 -21 -13 -21 8 0 5 -5 -7 -14 -10 -8 -21 -11 -24 -8 -3 4 -25 8 -49 10
-123 8 -189 118 -126 210 45 66 125 89 200 58z m4544 5 c9 -6 10 -11 2 -15
-18 -12 -12 -23 14 -28 14 -3 25 -1 25 3 0 5 7 9 15 9 18 0 20 -27 3 -32 -7
-3 -8 -10 -3 -17 5 -9 20 -12 46 -8 30 4 42 0 59 -18 18 -19 19 -23 6 -28 -25
-10 -19 -35 12 -54 15 -9 35 -25 45 -35 9 -9 23 -15 31 -12 7 3 16 -2 19 -10
4 -9 2 -16 -4 -16 -6 0 -7 -5 -4 -10 4 -6 11 -7 17 -4 7 4 8 2 4 -4 -15 -24
-43 -10 -99 50 -32 35 -56 57 -52 51 10 -22 -10 -14 -34 11 -13 14 -20 29 -17
34 6 11 -34 44 -104 85 -37 22 -41 27 -21 27 16 0 21 4 17 15 -6 17 2 19 23 6z
m786 -21 c40 -25 65 -70 65 -119 0 -51 -45 -106 -101 -122 -92 -28 -204 69
-184 160 3 15 20 42 37 60 51 53 118 60 183 21z m-7951 -5 c49 -23 72 -73 67
-147 -2 -31 -68 -94 -111 -107 -101 -30 -202 57 -179 156 8 36 44 85 74 100
31 16 113 15 149 -2z m9350 -132 c4 -4 26 -9 48 -10 93 -6 286 -129 356 -227
46 -64 40 -65 -21 -2 -56 57 -137 104 -182 104 -14 0 -24 -3 -21 -6 3 -2 0
-14 -6 -25 -9 -17 -7 -24 8 -36 11 -9 26 -25 34 -35 14 -18 14 -19 -7 -8 -27
15 -36 15 -28 2 10 -16 -39 6 -115 51 -65 38 -140 61 -140 43 1 -21 28 -44 46
-39 12 4 11 1 -4 -6 -12 -7 -26 -28 -32 -48 -5 -20 -17 -45 -26 -56 -15 -19
-15 -19 -10 11 16 100 19 137 7 130 -22 -14 -11 42 14 72 14 17 24 36 23 44
-2 8 5 12 20 10 12 -2 22 2 22 7 0 6 -4 11 -10 11 -5 0 -10 5 -10 10 0 12 23
13 34 3z m-8971 -418 c-8 -118 -8 -120 -33 -123 -22 -2 -23 -1 -9 10 9 7 18
25 21 41 5 25 3 27 -28 27 -32 0 -34 2 -34 34 0 52 7 63 39 58 23 -3 29 0 33
20 5 26 -12 48 -36 48 -8 0 -16 -12 -19 -27 -2 -16 -4 17 -5 72 0 55 2 94 5
88 6 -16 33 -17 33 -2 0 5 5 7 10 4 6 -3 13 2 18 12 11 27 14 -123 5 -262z
m2212 225 c9 -14 65 -13 65 2 0 6 3 8 7 5 3 -4 -2 -17 -13 -29 -10 -13 -12
-17 -3 -11 18 14 62 6 56 -11 -2 -6 -11 -10 -20 -10 -13 1 -14 -2 -7 -16 10
-19 4 -50 -9 -50 -4 0 -13 6 -20 13 -11 10 -13 9 -8 -5 5 -14 1 -18 -15 -18
-21 0 -21 0 -2 -15 10 -8 29 -15 42 -15 19 0 21 -3 12 -20 -6 -11 -16 -17 -25
-14 -8 4 -12 10 -9 15 3 5 -5 9 -17 9 -16 0 -20 -5 -17 -18 5 -19 -14 -20
-102 -6 -32 5 -33 7 -16 20 10 7 23 11 28 8 16 -10 58 18 58 37 0 33 -22 67
-46 72 -26 5 -31 -2 -13 -20 11 -11 -8 -53 -24 -53 -4 0 -5 5 -2 10 11 18 -25
23 -44 6 -20 -18 -41 -22 -23 -4 16 16 15 28 -3 28 -17 0 -19 9 -5 30 8 13 11
13 19 1 11 -17 41 -7 41 14 0 18 50 21 51 3 0 -10 2 -10 6 0 2 6 19 12 36 12
16 0 28 3 25 6 -3 3 -25 6 -49 6 -31 0 -38 3 -24 8 11 4 23 6 27 4 4 -3 9 0
13 6 8 13 22 13 30 0z m6647 -28 c10 -39 -110 -382 -133 -382 -5 0 -9 -7 -9
-15 0 -8 -4 -15 -10 -15 -5 0 -10 9 -10 20 0 11 -5 28 -11 38 -9 15 -5 34 24
98 19 43 44 103 55 131 24 63 69 143 81 143 5 0 11 -8 13 -18z m237 -68 c20
-16 31 -35 31 -52 0 -14 -3 -22 -7 -19 -3 4 -14 0 -23 -8 -15 -14 -18 -14 -23
-1 -6 16 -15 16 -69 -3 -59 -20 -79 -81 -49 -154 18 -45 13 -97 -14 -146 -14
-25 -19 -37 -11 -26 38 50 46 57 25 20 -23 -41 -59 -86 -45 -55 4 8 1 6 -8 -4
-15 -18 -17 -18 -61 -2 -57 22 -124 102 -79 94 12 -2 20 10 29 40 7 24 41 85
74 136 34 50 61 103 61 116 0 23 0 23 -21 4 l-22 -19 7 40 c10 53 17 61 31 41
11 -15 13 -15 19 -1 4 10 13 14 24 11 13 -5 22 1 30 19 11 25 13 25 41 11 16
-9 43 -27 60 -42z m-7974 -13 c23 -10 54 -30 69 -45 16 -14 32 -26 35 -26 12
0 12 -131 1 -164 -13 -41 -64 -90 -112 -110 -36 -16 -68 -13 -68 5 0 6 9 5 20
-1 12 -6 20 -7 20 -1 0 5 8 12 18 14 9 3 0 5 -20 6 -43 1 -51 17 -13 27 14 3
38 22 55 40 55 63 35 153 -40 184 -37 16 -116 8 -138 -13 -13 -14 -18 -14 -44
-1 -34 18 -35 24 -4 53 53 50 151 64 221 32z m1451 -245 c3 -8 13 -13 22 -11
9 1 11 0 4 -2 -7 -3 -10 -8 -8 -12 3 -4 7 -26 10 -50 3 -24 12 -53 20 -65 9
-15 11 -28 5 -37 -8 -12 -10 -12 -19 1 -7 12 -12 12 -22 2 -14 -14 -78 -16
-78 -2 0 6 18 10 40 10 22 0 40 5 40 10 0 6 -4 10 -10 10 -5 0 -7 6 -4 14 4
10 -4 12 -35 9 -26 -3 -41 -1 -41 6 0 6 17 12 38 13 l37 1 -35 4 c-51 6 -62
23 -15 23 54 0 37 11 -22 13 -48 2 -48 2 -51 40 l-3 37 61 0 c42 0 62 -4 66
-14z m7197 -53 c77 -173 96 -245 96 -363 1 -142 -38 -261 -109 -340 -18 -19
-27 -27 -20 -17 10 14 10 17 -1 17 -7 0 3 17 23 38 48 49 81 112 67 128 -5 6
-9 16 -8 20 1 5 0 14 -1 19 -7 30 4 151 14 157 7 5 6 8 -4 8 -13 0 -13 1 0 10
13 9 13 10 0 10 -11 0 -9 4 5 12 11 6 22 12 24 14 2 2 -8 27 -22 56 -46 94
-89 202 -93 237 -3 19 -7 38 -10 42 -3 5 -1 9 4 9 5 0 21 -26 35 -57z m-1174
-282 c23 -16 31 -18 38 -9 5 9 10 3 14 -17 6 -29 7 -29 8 -4 0 15 -6 32 -14
39 -8 7 -15 16 -15 21 0 5 7 6 15 3 18 -7 18 -4 4 33 -8 22 -12 24 -19 13 -8
-12 -10 -11 -10 5 0 28 16 49 29 40 18 -10 30 -47 51 -157 25 -127 68 -271 85
-281 7 -4 16 -22 20 -40 11 -54 50 -110 123 -179 78 -74 162 -119 267 -145
l70 -18 -59 -3 c-145 -8 -324 95 -427 244 -36 52 -80 163 -109 278 -22 81 -27
90 -62 114 -37 24 -126 136 -142 177 -4 11 17 -5 48 -36 30 -31 68 -66 85 -78z
m-5796 -483 c8 -12 7 -21 -2 -32 -20 -23 -282 -24 -305 0 -19 19 -19 19 -2 37
12 11 46 14 157 13 121 -1 143 -3 152 -18z m3817 -439 c0 -5 -6 -9 -12 -10
-23 -1 -63 -9 -78 -16 -21 -8 -37 -11 -97 -19 -41 -5 -53 -3 -53 7 0 8 -6 6
-16 -7 -11 -13 -17 -15 -20 -6 -3 6 -11 9 -17 5 -18 -12 -91 -10 -99 2 -6 7
-10 6 -15 -1 -5 -7 -50 -11 -120 -11 -99 0 -113 2 -113 16 0 10 -6 23 -12 29
-10 10 32 12 202 12 118 -1 219 -5 225 -10 19 -15 95 -23 95 -10 0 7 7 10 15
6 8 -3 15 -1 15 4 0 8 23 13 78 16 12 1 22 -2 22 -7z m2305 -194 c-12 -9 -14
-13 -4 -10 8 3 23 -3 33 -14 15 -16 23 -18 38 -10 13 7 18 18 15 30 -5 17 1
19 49 19 l53 0 11 -41 c6 -23 12 -76 13 -118 l2 -76 -45 4 c-25 1 -46 6 -48
10 -1 4 -19 6 -40 4 -28 -2 -32 -1 -17 6 19 8 18 9 -7 21 -16 7 -28 17 -28 22
0 4 -4 8 -10 8 -5 0 -10 -14 -10 -31 0 -19 -4 -28 -11 -24 -6 4 -8 13 -5 21 3
9 0 11 -12 7 -12 -4 -10 0 4 10 24 19 38 57 21 57 -7 0 -5 5 3 10 13 8 13 10
-2 10 -9 0 -22 8 -27 18 -9 15 -12 15 -21 2 -7 -12 -13 -13 -29 -3 -21 13 -31
8 -31 -19 0 -10 -7 -18 -17 -18 -10 -1 -28 -16 -39 -34 -21 -33 -21 -34 -2
-50 31 -27 12 -36 -73 -36 -78 0 -80 0 -68 21 15 29 7 136 -13 176 -11 23 -13
33 -4 36 6 3 85 5 176 6 150 2 163 0 145 -14z m-7921 -27 c3 -13 6 -51 6 -85
l0 -63 270 0 c169 0 270 -4 270 -10 0 -5 -9 -24 -21 -42 -13 -20 -18 -25 -14
-12 5 18 1 22 -20 22 -28 0 -34 -15 -7 -20 9 -3 -18 -4 -60 -4 -42 1 -79 4
-83 8 -4 4 -14 1 -22 -7 -20 -20 -43 -19 -44 3 0 10 -3 12 -6 5 -2 -7 -16 -13
-29 -13 -13 0 -24 6 -25 13 0 6 -4 3 -9 -8 -7 -17 -9 -17 -9 -2 -1 15 -13 17
-102 17 -92 0 -101 -2 -106 -20 -5 -19 -14 -20 -274 -20 -148 0 -269 2 -269 3
0 2 7 18 16 36 16 33 16 158 0 193 -7 16 9 18 240 21 137 1 259 3 270 5 15 1
24 -5 28 -20z m5431 12 c4 -6 10 -32 14 -58 l6 -47 265 -5 c232 -4 265 -7 266
-21 1 -9 -4 -16 -10 -16 -6 -1 -124 -2 -262 -3 l-252 -1 -7 -45 -6 -44 -266 0
-265 0 6 23 c3 12 9 40 12 62 5 36 4 38 -9 23 -18 -22 -27 -13 -27 25 0 25 2
28 15 17 13 -10 15 -9 15 11 0 13 -6 36 -14 51 l-14 27 81 3 c264 9 445 9 452
-2z m-4200 -120 c11 -5 14 -9 8 -9 -17 -1 -17 -41 0 -41 8 0 12 -17 11 -52 l0
-53 -46 -3 c-30 -2 -51 2 -60 12 -17 16 -33 110 -22 127 15 25 72 35 109 19z
m-2605 -375 c0 -7 6 -15 13 -18 9 -3 8 -11 -5 -34 -17 -29 -17 -31 5 -52 13
-11 29 -21 35 -21 7 0 12 -6 12 -12 0 -8 7 -5 15 6 17 22 18 20 19 -46 1 -51
-19 -67 -30 -24 -5 20 -11 23 -44 22 -32 0 -40 -5 -45 -23 -4 -16 -13 -23 -30
-23 -13 0 -31 -10 -39 -22 l-16 -22 0 27 c0 20 5 27 20 27 12 0 17 5 14 14 -3
8 3 22 14 32 15 14 18 25 11 42 -5 12 -15 22 -24 22 -15 0 -19 16 -15 55 5 50
90 97 90 50z"/>
<path d="M4135 4703 c-38 -10 -75 -44 -75 -69 0 -26 2 -26 150 -28 30 -1 56
-5 57 -11 2 -6 -36 -9 -102 -8 -65 1 -105 -2 -105 -8 0 -6 -4 -7 -10 -4 -6 4
-6 -3 0 -21 15 -39 22 -47 29 -38 3 5 19 20 35 34 l28 25 -21 -40 c-16 -30
-18 -41 -8 -47 20 -13 86 -9 117 7 87 45 78 162 -16 201 -34 14 -45 15 -79 7z"/>
<path d="M9403 4680 c-17 -10 -37 -28 -42 -39 -23 -43 -5 -116 25 -104 13 5
15 2 10 -14 -13 -40 89 -59 144 -26 52 30 67 106 29 144 -15 15 -24 18 -34 9
-11 -9 -12 -7 -8 9 4 16 -1 23 -22 31 -39 15 -66 12 -102 -10z"/>
<path d="M4217 4290 c-31 -30 -27 -43 10 -29 13 5 28 9 33 9 14 0 20 -31 9
-51 -10 -19 -12 -19 -34 -5 -35 23 -77 20 -95 -6 -17 -28 -19 -41 -5 -50 6 -5
2 -8 -8 -8 -10 0 -15 -4 -12 -10 9 -15 82 -12 114 5 30 15 61 68 61 103 0 12
-10 32 -22 45 l-23 24 -28 -27z"/>
<path d="M9401 4324 c-38 -31 -48 -78 -28 -127 34 -80 163 -98 217 -30 36 47
17 163 -25 147 -9 -4 -15 0 -15 9 0 37 -105 38 -149 1z"/>
<path d="M1635 4227 c4 -15 1 -28 -9 -36 -10 -8 -16 -9 -16 -3 0 12 -51 25
-92 24 -16 0 -28 4 -28 9 0 5 -15 9 -34 9 -26 0 -35 -5 -39 -22 -4 -13 0 -33
9 -45 12 -19 18 -21 34 -13 17 9 20 7 20 -15 0 -23 3 -25 51 -25 45 0 55 4 85
34 26 26 34 42 34 70 0 20 -5 36 -10 36 -6 0 -8 -10 -5 -23z"/>
<path d="M2540 2070 c0 -68 1 -70 23 -65 12 2 47 6 77 9 l55 3 3 62 3 61 -81
0 -80 0 0 -70z"/>
<path d="M7989 2143 c-2 -17 2 -80 7 -105 5 -28 7 -28 80 -28 l74 0 0 70 0 70
-80 0 c-44 0 -80 -3 -81 -7z"/>
<path d="M5835 8109 c3 -4 1 -11 -5 -14 -16 -10 -76 -134 -94 -195 -24 -81
-36 -167 -37 -269 -1 -81 -3 -89 -16 -74 -13 16 -14 9 -8 -57 6 -87 18 -136
31 -133 10 3 36 142 35 188 -1 51 70 298 109 377 34 71 46 88 96 140 l49 49
-82 -2 c-45 -1 -80 -5 -78 -10z"/>
</g>
</svg>
